<mxfile host="app.diagrams.net" agent="Mozilla/5.0 (Windows NT 10.0; Win64; x64) AppleWebKit/537.36 (KHTML, like Gecko) Chrome/131.0.0.0 Safari/537.36" version="25.0.3">
  <diagram name="第 1 页" id="kunoE562ZuYw9vsu3_-h">
    <mxGraphModel dx="1221" dy="1894" grid="1" gridSize="10" guides="1" tooltips="1" connect="1" arrows="1" fold="1" page="1" pageScale="1" pageWidth="827" pageHeight="1169" math="0" shadow="0">
      <root>
        <mxCell id="0" />
        <mxCell id="1" parent="0" />
        <mxCell id="fXp9aWVOsmLKfyarqgo--42" value="" style="points=[[0.145,0.145,0],[0.5,0,0],[0.855,0.145,0],[1,0.5,0],[0.855,0.855,0],[0.5,1,0],[0.145,0.855,0],[0,0.5,0]];shape=mxgraph.bpmn.event;html=1;verticalLabelPosition=bottom;labelBackgroundColor=#ffffff;verticalAlign=top;align=center;perimeter=ellipsePerimeter;outlineConnect=0;aspect=fixed;outline=standard;symbol=general;" parent="1" vertex="1">
          <mxGeometry x="80" y="40" width="50" height="50" as="geometry" />
        </mxCell>
        <mxCell id="fXp9aWVOsmLKfyarqgo--43" value="" style="points=[[0.145,0.145,0],[0.5,0,0],[0.855,0.145,0],[1,0.5,0],[0.855,0.855,0],[0.5,1,0],[0.145,0.855,0],[0,0.5,0]];shape=mxgraph.bpmn.event;html=1;verticalLabelPosition=bottom;labelBackgroundColor=#ffffff;verticalAlign=top;align=center;perimeter=ellipsePerimeter;outlineConnect=0;aspect=fixed;outline=standard;symbol=general;strokeWidth=3;" parent="1" vertex="1">
          <mxGeometry x="1240" y="35.5" width="50" height="50" as="geometry" />
        </mxCell>
        <mxCell id="fXp9aWVOsmLKfyarqgo--52" style="edgeStyle=orthogonalEdgeStyle;rounded=0;orthogonalLoop=1;jettySize=auto;html=1;" parent="1" source="fXp9aWVOsmLKfyarqgo--45" edge="1">
          <mxGeometry relative="1" as="geometry">
            <mxPoint x="370" y="65" as="targetPoint" />
          </mxGeometry>
        </mxCell>
        <mxCell id="fXp9aWVOsmLKfyarqgo--45" value="" style="points=[[0.25,0,0],[0.5,0,0],[0.75,0,0],[1,0.25,0],[1,0.5,0],[1,0.75,0],[0.75,1,0],[0.5,1,0],[0.25,1,0],[0,0.75,0],[0,0.5,0],[0,0.25,0]];shape=mxgraph.bpmn.task;whiteSpace=wrap;rectStyle=rounded;size=10;html=1;container=1;expand=0;collapsible=0;taskMarker=abstract;" parent="1" vertex="1">
          <mxGeometry x="190" y="37.5" width="120" height="55" as="geometry" />
        </mxCell>
        <mxCell id="fXp9aWVOsmLKfyarqgo--47" value="Receive order" style="text;html=1;align=center;verticalAlign=middle;whiteSpace=wrap;rounded=0;" parent="fXp9aWVOsmLKfyarqgo--45" vertex="1">
          <mxGeometry x="30" y="12.5" width="60" height="30" as="geometry" />
        </mxCell>
        <mxCell id="fXp9aWVOsmLKfyarqgo--46" style="edgeStyle=orthogonalEdgeStyle;rounded=0;orthogonalLoop=1;jettySize=auto;html=1;entryX=0;entryY=0.5;entryDx=0;entryDy=0;entryPerimeter=0;" parent="1" source="fXp9aWVOsmLKfyarqgo--42" target="fXp9aWVOsmLKfyarqgo--45" edge="1">
          <mxGeometry relative="1" as="geometry" />
        </mxCell>
        <mxCell id="fXp9aWVOsmLKfyarqgo--59" style="edgeStyle=orthogonalEdgeStyle;rounded=0;orthogonalLoop=1;jettySize=auto;html=1;exitX=0.5;exitY=1;exitDx=0;exitDy=0;exitPerimeter=0;" parent="1" source="fXp9aWVOsmLKfyarqgo--48" edge="1">
          <mxGeometry relative="1" as="geometry">
            <mxPoint x="655" y="140" as="targetPoint" />
            <mxPoint x="590" y="90" as="sourcePoint" />
            <Array as="points">
              <mxPoint x="565" y="140" />
            </Array>
          </mxGeometry>
        </mxCell>
        <mxCell id="fXp9aWVOsmLKfyarqgo--48" value="" style="points=[[0.25,0.25,0],[0.5,0,0],[0.75,0.25,0],[1,0.5,0],[0.75,0.75,0],[0.5,1,0],[0.25,0.75,0],[0,0.5,0]];shape=mxgraph.bpmn.gateway2;html=1;verticalLabelPosition=bottom;labelBackgroundColor=#ffffff;verticalAlign=top;align=center;perimeter=rhombusPerimeter;outlineConnect=0;outline=none;symbol=none;gwType=parallel;" parent="1" vertex="1">
          <mxGeometry x="540" y="40" width="50" height="50" as="geometry" />
        </mxCell>
        <mxCell id="fXp9aWVOsmLKfyarqgo--49" value="" style="points=[[0.25,0,0],[0.5,0,0],[0.75,0,0],[1,0.25,0],[1,0.5,0],[1,0.75,0],[0.75,1,0],[0.5,1,0],[0.25,1,0],[0,0.75,0],[0,0.5,0],[0,0.25,0]];shape=mxgraph.bpmn.task;whiteSpace=wrap;rectStyle=rounded;size=10;html=1;container=1;expand=0;collapsible=0;taskMarker=abstract;" parent="1" vertex="1">
          <mxGeometry x="369" y="37.5" width="120" height="55" as="geometry" />
        </mxCell>
        <mxCell id="fXp9aWVOsmLKfyarqgo--50" value="Record flight details" style="text;html=1;align=center;verticalAlign=middle;whiteSpace=wrap;rounded=0;" parent="fXp9aWVOsmLKfyarqgo--49" vertex="1">
          <mxGeometry x="15" y="12.5" width="80" height="30" as="geometry" />
        </mxCell>
        <mxCell id="fXp9aWVOsmLKfyarqgo--53" style="edgeStyle=orthogonalEdgeStyle;rounded=0;orthogonalLoop=1;jettySize=auto;html=1;entryX=0;entryY=0.5;entryDx=0;entryDy=0;entryPerimeter=0;" parent="1" source="fXp9aWVOsmLKfyarqgo--49" target="fXp9aWVOsmLKfyarqgo--48" edge="1">
          <mxGeometry relative="1" as="geometry" />
        </mxCell>
        <mxCell id="fXp9aWVOsmLKfyarqgo--54" value="" style="points=[[0.25,0,0],[0.5,0,0],[0.75,0,0],[1,0.25,0],[1,0.5,0],[1,0.75,0],[0.75,1,0],[0.5,1,0],[0.25,1,0],[0,0.75,0],[0,0.5,0],[0,0.25,0]];shape=mxgraph.bpmn.task;whiteSpace=wrap;rectStyle=rounded;size=10;html=1;container=1;expand=0;collapsible=0;taskMarker=abstract;" parent="1" vertex="1">
          <mxGeometry x="640" y="-60" width="120" height="80" as="geometry" />
        </mxCell>
        <mxCell id="fXp9aWVOsmLKfyarqgo--62" style="edgeStyle=orthogonalEdgeStyle;rounded=0;orthogonalLoop=1;jettySize=auto;html=1;" parent="fXp9aWVOsmLKfyarqgo--54" edge="1">
          <mxGeometry relative="1" as="geometry">
            <mxPoint x="272" y="90" as="targetPoint" />
            <mxPoint x="119.5" y="40" as="sourcePoint" />
          </mxGeometry>
        </mxCell>
        <mxCell id="fXp9aWVOsmLKfyarqgo--55" value="Send to&amp;nbsp;&lt;span style=&quot;font-family: Calibri; font-size: 10.5pt; background-color: initial;&quot;&gt;Production System&lt;/span&gt;" style="text;html=1;align=center;verticalAlign=middle;whiteSpace=wrap;rounded=0;" parent="fXp9aWVOsmLKfyarqgo--54" vertex="1">
          <mxGeometry x="2.5" y="18.18" width="115" height="43.64" as="geometry" />
        </mxCell>
        <mxCell id="fXp9aWVOsmLKfyarqgo--56" value="" style="points=[[0.25,0,0],[0.5,0,0],[0.75,0,0],[1,0.25,0],[1,0.5,0],[1,0.75,0],[0.75,1,0],[0.5,1,0],[0.25,1,0],[0,0.75,0],[0,0.5,0],[0,0.25,0]];shape=mxgraph.bpmn.task;whiteSpace=wrap;rectStyle=rounded;size=10;html=1;container=1;expand=0;collapsible=0;taskMarker=abstract;" parent="1" vertex="1">
          <mxGeometry x="655" y="110" width="120" height="70" as="geometry" />
        </mxCell>
        <mxCell id="fXp9aWVOsmLKfyarqgo--57" value="Send to&amp;nbsp;&lt;span style=&quot;font-family: Calibri; font-size: 10.5pt; background-color: initial;&quot;&gt;Inventory Control System&lt;/span&gt;" style="text;html=1;align=center;verticalAlign=middle;whiteSpace=wrap;rounded=0;" parent="fXp9aWVOsmLKfyarqgo--56" vertex="1">
          <mxGeometry x="7.5" y="15.91" width="105" height="38.18" as="geometry" />
        </mxCell>
        <mxCell id="fXp9aWVOsmLKfyarqgo--58" style="edgeStyle=orthogonalEdgeStyle;rounded=0;orthogonalLoop=1;jettySize=auto;html=1;exitX=0.5;exitY=0;exitDx=0;exitDy=0;exitPerimeter=0;entryX=0;entryY=0.5;entryDx=0;entryDy=0;entryPerimeter=0;" parent="1" source="fXp9aWVOsmLKfyarqgo--48" target="fXp9aWVOsmLKfyarqgo--54" edge="1">
          <mxGeometry relative="1" as="geometry" />
        </mxCell>
        <mxCell id="rSowME8vh13iNr4Y3dQu-3" value="" style="edgeStyle=orthogonalEdgeStyle;rounded=0;orthogonalLoop=1;jettySize=auto;html=1;" parent="1" source="fXp9aWVOsmLKfyarqgo--60" target="fXp9aWVOsmLKfyarqgo--43" edge="1">
          <mxGeometry relative="1" as="geometry" />
        </mxCell>
        <mxCell id="fXp9aWVOsmLKfyarqgo--60" value="" style="points=[[0.25,0,0],[0.5,0,0],[0.75,0,0],[1,0.25,0],[1,0.5,0],[1,0.75,0],[0.75,1,0],[0.5,1,0],[0.25,1,0],[0,0.75,0],[0,0.5,0],[0,0.25,0]];shape=mxgraph.bpmn.task;whiteSpace=wrap;rectStyle=rounded;size=10;html=1;container=1;expand=0;collapsible=0;taskMarker=abstract;" parent="1" vertex="1">
          <mxGeometry x="1000" y="33" width="150" height="55" as="geometry" />
        </mxCell>
        <mxCell id="rSowME8vh13iNr4Y3dQu-1" style="edgeStyle=orthogonalEdgeStyle;rounded=0;orthogonalLoop=1;jettySize=auto;html=1;entryX=0.5;entryY=1;entryDx=0;entryDy=0;entryPerimeter=0;" parent="1" source="fXp9aWVOsmLKfyarqgo--56" target="Cx8p_q59IBlN97fOhoVx-2" edge="1">
          <mxGeometry relative="1" as="geometry">
            <mxPoint x="920" y="80" as="targetPoint" />
          </mxGeometry>
        </mxCell>
        <mxCell id="Cx8p_q59IBlN97fOhoVx-2" value="" style="points=[[0.25,0.25,0],[0.5,0,0],[0.75,0.25,0],[1,0.5,0],[0.75,0.75,0],[0.5,1,0],[0.25,0.75,0],[0,0.5,0]];shape=mxgraph.bpmn.gateway2;html=1;verticalLabelPosition=bottom;labelBackgroundColor=#ffffff;verticalAlign=top;align=center;perimeter=rhombusPerimeter;outlineConnect=0;outline=none;symbol=none;gwType=parallel;" vertex="1" parent="1">
          <mxGeometry x="890" y="30" width="50" height="50" as="geometry" />
        </mxCell>
        <mxCell id="fXp9aWVOsmLKfyarqgo--61" value="&lt;p class=&quot;MsoNormal&quot;&gt;&lt;span style=&quot;mso-spacerun:&#39;yes&#39;;font-family:Calibri;mso-fareast-font-family:宋体;&lt;br/&gt;mso-bidi-font-family:&#39;Times New Roman&#39;;font-size:10.5000pt;mso-font-kerning:1.0000pt;&quot;&gt;Ensure accurate order requirements&lt;/span&gt;&lt;/p&gt;" style="text;html=1;align=center;verticalAlign=middle;whiteSpace=wrap;rounded=0;" parent="1" vertex="1">
          <mxGeometry x="1015.75" y="45.5" width="121.25" height="30" as="geometry" />
        </mxCell>
        <mxCell id="Cx8p_q59IBlN97fOhoVx-5" style="edgeStyle=orthogonalEdgeStyle;rounded=0;orthogonalLoop=1;jettySize=auto;html=1;entryX=0.016;entryY=0.394;entryDx=0;entryDy=0;entryPerimeter=0;" edge="1" parent="1" source="Cx8p_q59IBlN97fOhoVx-2" target="fXp9aWVOsmLKfyarqgo--60">
          <mxGeometry relative="1" as="geometry" />
        </mxCell>
      </root>
    </mxGraphModel>
  </diagram>
</mxfile>
